# xmcd
#
# Track frame offsets:
#	150
#	16737
#	35675
#	53502
#	72315
#	96752
#	125112
#	144960
#	164495
#	187100
#	224305
#
# Disc length: 3375 seconds
#
# Revision: 0
# Processed by: cddbd v1.4PL0 Copyright (c) Steve Scherf et al.
# Submitted via: dBpowerAMP V4.0
#
DISCID=9d0d2d0b
DTITLE=Jack Lukeman - Metropolis Blue
DYEAR=2000
DGENRE=Blues
TTITLE0=Crazy
TTITLE1=Georgie Boy
TTITLE2=Boys and Girls (Ode to Ed Wood
TTITLE3=Roof Top Lullaby
TTITLE4=Taste of Fall
TTITLE5=When the Moon is High
TTITLE6=Numero Uno
TTITLE7=Metropolis Blue
TTITLE8=Bed Springs
TTITLE9=No Goodbyes
TTITLE10=DATA
EXTD=
EXTT0=
EXTT1=
EXTT2=
EXTT3=
EXTT4=
EXTT5=
EXTT6=
EXTT7=
EXTT8=
EXTT9=
EXTT10=
PLAYORDER=
